<svg xmlns="http://www.w3.org/2000/svg" viewBox="0 0 512 512">
  <defs>
    <linearGradient id="grad" x1="0%" y1="0%" x2="100%" y2="100%">
      <stop offset="0%" style="stop-color:#1a472a;stop-opacity:1" />
      <stop offset="100%" style="stop-color:#2d5a3d;stop-opacity:1" />
    </linearGradient>
  </defs>
  <!-- Background -->
  <rect width="512" height="512" rx="96" fill="url(#grad)"/>
  <!-- Brain icon -->
  <g transform="translate(96, 96) scale(0.625)">
    <path fill="#ffffff" d="M256 32C145.6 32 56 121.6 56 232c0 57.6 24 109.6 62.4 146.4L96 480l86.4-43.2c22.4 8.8 46.4 14.4 73.6 14.4c110.4 0 200-89.6 200-200S366.4 32 256 32z"/>
    <path fill="#1a472a" d="M256 96c-74.4 0-136 61.6-136 136c0 37.6 15.2 71.2 40 95.2l-20.8 62.4l64.8-32.4c16 6.4 33.6 10.4 52 10.4c74.4 0 136-61.6 136-136S330.4 96 256 96z"/>
    <circle fill="#f4a460" cx="200" cy="200" r="24"/>
    <circle fill="#f4a460" cx="312" cy="200" r="24"/>
    <path fill="#f4a460" d="M200 280c0 0 28 40 56 40s56-40 56-40" stroke="#f4a460" stroke-width="12" stroke-linecap="round" fill="none"/>
    <!-- Neural connections -->
    <circle fill="#4caf50" cx="160" cy="160" r="8"/>
    <circle fill="#2196f3" cx="352" cy="160" r="8"/>
    <circle fill="#ff9800" cx="256" cy="320" r="8"/>
    <line x1="160" y1="160" x2="200" y2="200" stroke="#4caf50" stroke-width="4"/>
    <line x1="352" y1="160" x2="312" y2="200" stroke="#2196f3" stroke-width="4"/>
    <line x1="256" y1="280" x2="256" y2="320" stroke="#ff9800" stroke-width="4"/>
  </g>
</svg>
